<mxfile host="Electron" agent="Mozilla/5.0 (Windows NT 10.0; Win64; x64) AppleWebKit/537.36 (KHTML, like Gecko) draw.io/27.0.9 Chrome/134.0.6998.205 Electron/35.4.0 Safari/537.36" version="27.0.9">
  <diagram name="第 1 页" id="fE64Mg-G4txONNjo-n6Y">
    <mxGraphModel dx="1213" dy="828" grid="1" gridSize="10" guides="1" tooltips="1" connect="1" arrows="1" fold="1" page="1" pageScale="1" pageWidth="827" pageHeight="1169" background="#ffffff" math="0" shadow="0">
      <root>
        <mxCell id="0" />
        <mxCell id="1" parent="0" />
        <mxCell id="eD-LM4xKbCHI85OZL3FN-1" value="背景图片(x,y)处的RGB值" style="rounded=0;whiteSpace=wrap;html=1;fillColor=#dae8fc;strokeColor=#6c8ebf;" vertex="1" parent="1">
          <mxGeometry x="600" y="310" width="120" height="60" as="geometry" />
        </mxCell>
        <mxCell id="eD-LM4xKbCHI85OZL3FN-3" value="标题图片(x-x0,y-y0)处的RGBA值" style="rounded=0;whiteSpace=wrap;html=1;fillColor=#dae8fc;strokeColor=#6c8ebf;" vertex="1" parent="1">
          <mxGeometry x="600" y="210" width="120" height="60" as="geometry" />
        </mxCell>
        <mxCell id="eD-LM4xKbCHI85OZL3FN-4" value="&lt;div style=&quot;text-align: left;&quot;&gt;注：&lt;/div&gt;这里的(x0,y0)是标题图片的显示位置&lt;div style=&quot;text-align: left;&quot;&gt;(x1,y1)是鼠标指针位置&lt;/div&gt;" style="text;html=1;align=center;verticalAlign=middle;whiteSpace=wrap;rounded=0;fillColor=#fff2cc;strokeColor=#d6b656;" vertex="1" parent="1">
          <mxGeometry x="560" y="60" width="200" height="60" as="geometry" />
        </mxCell>
        <mxCell id="eD-LM4xKbCHI85OZL3FN-7" value="屏幕(x,y)处的RGB值" style="rounded=0;whiteSpace=wrap;html=1;fillColor=#d5e8d4;strokeColor=#82b366;" vertex="1" parent="1">
          <mxGeometry x="10" y="160" width="120" height="60" as="geometry" />
        </mxCell>
        <mxCell id="eD-LM4xKbCHI85OZL3FN-9" value="" style="strokeWidth=2;html=1;shape=stencil(pVTLbsMgEPwarhWGVmqOEU2PvfTQM3G2NUoMFqZJ+/dds7Fqx4/4IVmydsbMsMMaJlWZ6QKY4FbnwOQLE2JrrQs6GGcRFgjgKyNq80zlhcqEc6p1WUAaCDxrb/T+BMSUwbsjXMwhXCWMzcCbULFyx/gWv6keqVJnLYqgbdliGjyKaWNxLf8hMf7wRDa/15qqAh1yCOBb6H+HbwQw8brYKZnm9L7Aqd1R7XvP6WO+U7LMabfaaeIprTaaekgDRlIhMjSWUu11evzy7tseerdX6GrkO0RN5+4MjX1z3hdRf+u1xMnYhsTt4KxWqH/2ORK3fYxrxIA7OUV0IFypPp2HkdTpvhlxnHUs7WYeN6szHZfoz+Nua3FZJ5eI0u0egT8=);align=left;labelPosition=right;pointerEvents=1;" vertex="1" parent="1">
          <mxGeometry x="130" y="90" width="260" height="200" as="geometry" />
        </mxCell>
        <mxCell id="eD-LM4xKbCHI85OZL3FN-11" value="&lt;div style=&quot;text-align: left;&quot;&gt;满足以下条件：&lt;/div&gt;&lt;div style=&quot;text-align: left;&quot;&gt;&lt;span style=&quot;background-color: transparent; color: light-dark(rgb(0, 0, 0), rgb(255, 255, 255));&quot;&gt;1.(x,y)位于以&lt;/span&gt;&lt;span style=&quot;background-color: transparent; color: light-dark(rgb(0, 0, 0), rgb(255, 255, 255)); text-align: left;&quot;&gt;(x1,y1)为中心，鼠标指针图片大小为边长的正方形邻域内&lt;/span&gt;&lt;/div&gt;&lt;div style=&quot;text-align: left;&quot;&gt;&lt;span style=&quot;background-color: transparent; color: light-dark(rgb(0, 0, 0), rgb(255, 255, 255)); text-align: left;&quot;&gt;2.对应位置的&lt;/span&gt;&lt;span style=&quot;background-color: transparent; color: light-dark(rgb(0, 0, 0), rgb(255, 255, 255));&quot;&gt;鼠标指针图片像素透明度低于一定值&lt;/span&gt;&lt;/div&gt;" style="text;html=1;align=center;verticalAlign=middle;whiteSpace=wrap;rounded=0;" vertex="1" parent="1">
          <mxGeometry x="180" y="10" width="210" height="80" as="geometry" />
        </mxCell>
        <mxCell id="eD-LM4xKbCHI85OZL3FN-12" value="鼠标图片对应位置处的RGB值" style="rounded=0;whiteSpace=wrap;html=1;fillColor=#dae8fc;strokeColor=#6c8ebf;" vertex="1" parent="1">
          <mxGeometry x="390" y="60" width="120" height="60" as="geometry" />
        </mxCell>
        <mxCell id="eD-LM4xKbCHI85OZL3FN-13" value="&lt;div style=&quot;&quot;&gt;否则&lt;/div&gt;" style="text;html=1;align=left;verticalAlign=middle;whiteSpace=wrap;rounded=0;" vertex="1" parent="1">
          <mxGeometry x="260" y="270" width="30" height="20" as="geometry" />
        </mxCell>
        <mxCell id="eD-LM4xKbCHI85OZL3FN-14" value="" style="strokeWidth=2;html=1;shape=stencil(pVTLbsMgEPwarhWGVmqOEU2PvfTQM3G2NUoMFqZJ+/dds7Fqx4/4IVmydsbMsMMaJlWZ6QKY4FbnwOQLE2JrrQs6GGcRFgjgKyNq80zlhcqEc6p1WUAaCDxrb/T+BMSUwbsjXMwhXCWMzcCbULFyx/gWv6keqVJnLYqgbdliGjyKaWNxLf8hMf7wRDa/15qqAh1yCOBb6H+HbwQw8brYKZnm9L7Aqd1R7XvP6WO+U7LMabfaaeIprTaaekgDRlIhMjSWUu11evzy7tseerdX6GrkO0RN5+4MjX1z3hdRf+u1xMnYhsTt4KxWqH/2ORK3fYxrxIA7OUV0IFypPp2HkdTpvhlxnHUs7WYeN6szHZfoz+Nua3FZJ5eI0u0egT8=);align=left;labelPosition=right;pointerEvents=1;" vertex="1" parent="1">
          <mxGeometry x="340" y="240" width="260" height="100" as="geometry" />
        </mxCell>
        <mxCell id="eD-LM4xKbCHI85OZL3FN-15" value="&lt;div style=&quot;text-align: left;&quot;&gt;满足以下条件：&lt;/div&gt;&lt;div style=&quot;text-align: left;&quot;&gt;&lt;span style=&quot;background-color: transparent; color: light-dark(rgb(0, 0, 0), rgb(255, 255, 255));&quot;&gt;1.(x,y)位于以&lt;/span&gt;&lt;span style=&quot;background-color: transparent; color: light-dark(rgb(0, 0, 0), rgb(255, 255, 255)); text-align: left;&quot;&gt;(x0,y0)为左上角，标题图片大小的长方形内&lt;/span&gt;&lt;/div&gt;&lt;div style=&quot;text-align: left;&quot;&gt;&lt;span style=&quot;background-color: transparent; color: light-dark(rgb(0, 0, 0), rgb(255, 255, 255)); text-align: left;&quot;&gt;2.&lt;/span&gt;&lt;span style=&quot;text-align: center;&quot;&gt;(x-x0,y-y0)处&lt;/span&gt;&lt;span style=&quot;background-color: transparent; color: light-dark(rgb(0, 0, 0), rgb(255, 255, 255)); text-align: left;&quot;&gt;的&lt;/span&gt;&lt;span style=&quot;text-align: center;&quot;&gt;标题图片&lt;/span&gt;&lt;span style=&quot;background-color: transparent; color: light-dark(rgb(0, 0, 0), rgb(255, 255, 255));&quot;&gt;像素透明度低于一定值&lt;/span&gt;&lt;/div&gt;" style="text;html=1;align=center;verticalAlign=middle;whiteSpace=wrap;rounded=0;" vertex="1" parent="1">
          <mxGeometry x="390" y="160" width="210" height="80" as="geometry" />
        </mxCell>
        <mxCell id="eD-LM4xKbCHI85OZL3FN-17" value="&lt;div style=&quot;&quot;&gt;否则&lt;/div&gt;" style="text;html=1;align=left;verticalAlign=middle;whiteSpace=wrap;rounded=0;" vertex="1" parent="1">
          <mxGeometry x="480" y="320" width="30" height="20" as="geometry" />
        </mxCell>
      </root>
    </mxGraphModel>
  </diagram>
</mxfile>
